<svg width="36" height="46" viewBox="0 0 36 46" xmlns="http://www.w3.org/2000/svg"><title>health_store_marker</title><desc>Created with Sketch.</desc><g fill="none"><path d="M9.676 42.879c0-1.263 3.731-2.284 8.332-2.284 4.601 0 8.333 1.021 8.333 2.284s-3.732 2.284-8.333 2.284-8.332-1.021-8.332-2.284" fill-opacity=".15" fill="#030404"/><path d="M35.681 17.758c0-9.805-7.913-17.758-17.673-17.758-9.759 0-17.673 7.953-17.673 17.758 0 8.849 6.437 16.183 14.859 17.538l3.069 8.853 2.689-8.877c8.357-1.409 14.729-8.711 14.729-17.514" fill="#D6B728"/><path d="M29.077 14.643l-3.09-4.981-7.233-.079h-.124l-.118-.007-7.232.085-3.096 4.981s-.596 1.721 1.636 1.977c0 0 2.061.085 2.664-1.113 0 0 .34 1.198 1.977 1.198 0 0 1.892 0 2.147-1.113 0 0 .314.929 1.904 1.021v.007h.242v-.007c1.591-.092 1.905-1.021 1.905-1.021.255 1.113 2.147 1.113 2.147 1.113 1.629 0 1.976-1.198 1.976-1.198.602 1.198 2.665 1.113 2.665 1.113 2.232-.255 1.63-1.977 1.63-1.977zm-12.987-.425s0 1.545-1.8 1.375c0 0-1.289.085-.948-1.721l1.119-3.43h2.147l-.518 3.777zm6.644 1.375c-1.8.17-1.8-1.375-1.8-1.375l-.516-3.777h2.146l1.119 3.43c.34 1.807-.949 1.721-.949 1.721z" fill="#FEFEFE"/><path fill="#FEFEFE" d="M11.882 22.117h2.749v-2.749h-2.749z"/><path d="M27.506 23.112v-5.204h-1.028v5.236l.007.085c0 .02.059.452-.249.812-.321.373-.949.563-1.82.563h-3.77v-6.526h-4.471v6.526h-3.521c-.871 0-1.499-.19-1.82-.563-.314-.36-.249-.792-.249-.805l.007-5.328h-1.028v5.204c-.026.209-.072.943.471 1.584.524.628 1.407.943 2.618.943h11.763c1.211 0 2.095-.314 2.618-.943.543-.641.497-1.375.471-1.584" fill="#FEFEFE"/><path fill="#FEFEFE" d="M22.191 22.117h2.749v-2.749h-2.749z"/></g></svg>