<svg width="36" height="46" viewBox="0 0 36 46" xmlns="http://www.w3.org/2000/svg"><title>vegan_marker</title><desc>Created with Sketch.</desc><g fill="none"><path d="M9.676 42.879c0-1.263 3.732-2.284 8.332-2.284 4.601 0 8.333 1.021 8.333 2.284s-3.732 2.284-8.333 2.284-8.332-1.021-8.332-2.284" fill-opacity=".15" fill="#030404"/><path d="M35.681 17.758c0-9.805-7.913-17.758-17.673-17.758-9.759 0-17.673 7.953-17.673 17.758 0 8.849 6.437 16.183 14.859 17.538l3.07 8.853 2.688-8.877c8.357-1.409 14.729-8.711 14.729-17.514" fill="#288941"/><path d="M18.931 28.637s-2.251-13.817 9.275-18.17l.105.288c.615 1.767.956 3.679.929 5.544-.013 1.303-.223 2.612-.733 3.816-.641 1.499-2.062 2.075-3.528 2.618-.419.151-.857.268-1.289.412-.805.262-1.63.609-2.049 1.381 0 0 .085-1.309 2.703-3.836 0 0 1.78-1.394 2.114-4.444 0 0-5.367.844-7.527 12.391" fill="#FEFEFE"/><path d="M17.459 28.637s2.251-13.817-9.275-18.17l-.105.288c-.622 1.767-.963 3.679-.936 5.544.02 1.303.229 2.612.739 3.816.636 1.499 2.062 2.075 3.522 2.618.425.151.864.268 1.296.412.798.262 1.623.609 2.048 1.381 0 0-.084-1.309-2.703-3.836 0 0-1.787-1.394-2.114-4.444 0 0 5.36.844 7.527 12.391" fill="#FEFEFE"/></g></svg>