<svg width="36" height="46" viewBox="0 0 36 46" xmlns="http://www.w3.org/2000/svg"><title>vegetarian_marker</title><desc>Created with Sketch.</desc><g fill="none"><path d="M9.348 42.879c0-1.263 3.732-2.284 8.332-2.284 4.601 0 8.333 1.021 8.333 2.284s-3.732 2.284-8.333 2.284-8.332-1.021-8.332-2.284" fill-opacity=".15" fill="#030404"/><path d="M35.354 17.758c0-9.805-7.913-17.758-17.673-17.758-9.759 0-17.673 7.953-17.673 17.758 0 8.849 6.437 16.183 14.859 17.538l3.07 8.853 2.688-8.877c8.357-1.409 14.729-8.711 14.729-17.514" fill="#89288F"/><path d="M7.215 18.812s6.991-1.564 7.429 6.866c0 0-6.636.406-7.429-6.866" fill="#FEFEFE"/><path d="M17.877 29.272s-4.615-15.644 7.999-22.399l.164.321c.982 1.977 1.663 4.156 1.911 6.343.17 1.519.118 3.083-.295 4.556-.524 1.839-2.088 2.71-3.698 3.535-.465.242-.956.439-1.427.655-.89.412-1.787.929-2.16 1.885 0 0-.091-1.532 2.546-4.817 0 0 1.859-1.872 1.788-5.472 0 0-6.061 1.754-6.828 15.395" fill="#FEFEFE"/></g></svg>