<svg width="36" height="46" viewBox="0 0 36 46" xmlns="http://www.w3.org/2000/svg"><title>veg_options_marker</title><desc>Created with Sketch.</desc><g fill="none"><path d="M9.676 42.879c0-1.263 3.732-2.284 8.332-2.284 4.601 0 8.333 1.021 8.333 2.284s-3.732 2.284-8.333 2.284-8.332-1.021-8.332-2.284" fill-opacity=".15" fill="#030404"/><path d="M35.681 17.758c0-9.805-7.913-17.758-17.673-17.758-9.759 0-17.673 7.953-17.673 17.758 0 8.849 6.437 16.183 14.859 17.538l3.07 8.853 2.688-8.877c8.357-1.409 14.729-8.711 14.729-17.514" fill="#DC5D5C"/><path d="M15.671 29.232s-4.641-15.644 8.045-22.399l.164.321c.988 1.97 1.668 4.156 1.924 6.343.17 1.519.118 3.076-.3 4.556-.518 1.833-2.095 2.71-3.712 3.535-.471.236-.962.432-1.44.655-.89.412-1.793.929-2.167 1.879 0 0-.098-1.525 2.559-4.811 0 0 1.865-1.872 1.793-5.472 0 0-6.094 1.748-6.866 15.395" fill="#FEFEFE"/></g></svg>